<mxfile host="Electron" agent="Mozilla/5.0 (Windows NT 10.0; Win64; x64) AppleWebKit/537.36 (KHTML, like Gecko) draw.io/28.1.2 Chrome/138.0.7204.243 Electron/37.4.0 Safari/537.36" version="28.1.2">
  <diagram name="Side-1" id="o4l1mSNhwHFBIbw2n80D">
    <mxGraphModel dx="1426" dy="841" grid="1" gridSize="10" guides="1" tooltips="1" connect="1" arrows="1" fold="1" page="1" pageScale="1" pageWidth="827" pageHeight="1169" math="0" shadow="0">
      <root>
        <mxCell id="0" />
        <mxCell id="1" parent="0" />
        <mxCell id="_cuoZpArgOcJliaaxK5M-3" style="edgeStyle=orthogonalEdgeStyle;rounded=0;orthogonalLoop=1;jettySize=auto;html=1;exitX=0.5;exitY=1;exitDx=0;exitDy=0;entryX=0.5;entryY=0;entryDx=0;entryDy=0;" edge="1" parent="1" source="_cuoZpArgOcJliaaxK5M-1" target="_cuoZpArgOcJliaaxK5M-2">
          <mxGeometry relative="1" as="geometry" />
        </mxCell>
        <mxCell id="_cuoZpArgOcJliaaxK5M-1" value="Start" style="rounded=1;whiteSpace=wrap;html=1;" vertex="1" parent="1">
          <mxGeometry x="300" y="30" width="120" height="60" as="geometry" />
        </mxCell>
        <mxCell id="_cuoZpArgOcJliaaxK5M-5" style="edgeStyle=orthogonalEdgeStyle;rounded=0;orthogonalLoop=1;jettySize=auto;html=1;exitX=0.5;exitY=1;exitDx=0;exitDy=0;entryX=0.5;entryY=0;entryDx=0;entryDy=0;" edge="1" parent="1" source="_cuoZpArgOcJliaaxK5M-2" target="_cuoZpArgOcJliaaxK5M-4">
          <mxGeometry relative="1" as="geometry" />
        </mxCell>
        <mxCell id="_cuoZpArgOcJliaaxK5M-2" value="How many motors?" style="rounded=0;whiteSpace=wrap;html=1;" vertex="1" parent="1">
          <mxGeometry x="300" y="150" width="120" height="60" as="geometry" />
        </mxCell>
        <mxCell id="_cuoZpArgOcJliaaxK5M-7" style="edgeStyle=orthogonalEdgeStyle;rounded=0;orthogonalLoop=1;jettySize=auto;html=1;exitX=0.5;exitY=1;exitDx=0;exitDy=0;entryX=0.5;entryY=0;entryDx=0;entryDy=0;" edge="1" parent="1" source="_cuoZpArgOcJliaaxK5M-4" target="_cuoZpArgOcJliaaxK5M-6">
          <mxGeometry relative="1" as="geometry" />
        </mxCell>
        <mxCell id="_cuoZpArgOcJliaaxK5M-4" value="How many kg&#39;s of packages?" style="rounded=0;whiteSpace=wrap;html=1;" vertex="1" parent="1">
          <mxGeometry x="300" y="280" width="120" height="60" as="geometry" />
        </mxCell>
        <mxCell id="_cuoZpArgOcJliaaxK5M-10" style="edgeStyle=orthogonalEdgeStyle;rounded=0;orthogonalLoop=1;jettySize=auto;html=1;exitX=0.5;exitY=1;exitDx=0;exitDy=0;entryX=0.5;entryY=0;entryDx=0;entryDy=0;" edge="1" parent="1" source="_cuoZpArgOcJliaaxK5M-6" target="_cuoZpArgOcJliaaxK5M-8">
          <mxGeometry relative="1" as="geometry" />
        </mxCell>
        <mxCell id="_cuoZpArgOcJliaaxK5M-6" value="weight/amount of motors&amp;lt;=5.6" style="rounded=0;whiteSpace=wrap;html=1;" vertex="1" parent="1">
          <mxGeometry x="300" y="400" width="120" height="60" as="geometry" />
        </mxCell>
        <mxCell id="_cuoZpArgOcJliaaxK5M-11" style="edgeStyle=orthogonalEdgeStyle;rounded=0;orthogonalLoop=1;jettySize=auto;html=1;exitX=1;exitY=0.5;exitDx=0;exitDy=0;" edge="1" parent="1" source="_cuoZpArgOcJliaaxK5M-8">
          <mxGeometry relative="1" as="geometry">
            <mxPoint x="540" y="570" as="targetPoint" />
          </mxGeometry>
        </mxCell>
        <mxCell id="_cuoZpArgOcJliaaxK5M-13" value="Yes" style="edgeLabel;html=1;align=center;verticalAlign=middle;resizable=0;points=[];" vertex="1" connectable="0" parent="_cuoZpArgOcJliaaxK5M-11">
          <mxGeometry x="-0.2136" y="-4" relative="1" as="geometry">
            <mxPoint as="offset" />
          </mxGeometry>
        </mxCell>
        <mxCell id="_cuoZpArgOcJliaaxK5M-12" style="edgeStyle=orthogonalEdgeStyle;rounded=0;orthogonalLoop=1;jettySize=auto;html=1;exitX=0;exitY=0.5;exitDx=0;exitDy=0;" edge="1" parent="1" source="_cuoZpArgOcJliaaxK5M-8">
          <mxGeometry relative="1" as="geometry">
            <mxPoint x="180" y="570" as="targetPoint" />
          </mxGeometry>
        </mxCell>
        <mxCell id="_cuoZpArgOcJliaaxK5M-14" value="No" style="edgeLabel;html=1;align=center;verticalAlign=middle;resizable=0;points=[];" vertex="1" connectable="0" parent="_cuoZpArgOcJliaaxK5M-12">
          <mxGeometry x="-0.0583" y="1" relative="1" as="geometry">
            <mxPoint as="offset" />
          </mxGeometry>
        </mxCell>
        <mxCell id="_cuoZpArgOcJliaaxK5M-8" value="Can the motors carry the weight of packages" style="rhombus;whiteSpace=wrap;html=1;" vertex="1" parent="1">
          <mxGeometry x="282.5" y="490" width="155" height="160" as="geometry" />
        </mxCell>
        <mxCell id="_cuoZpArgOcJliaaxK5M-19" style="edgeStyle=orthogonalEdgeStyle;rounded=0;orthogonalLoop=1;jettySize=auto;html=1;entryX=1;entryY=0.5;entryDx=0;entryDy=0;" edge="1" parent="1" source="_cuoZpArgOcJliaaxK5M-15" target="_cuoZpArgOcJliaaxK5M-17">
          <mxGeometry relative="1" as="geometry">
            <mxPoint x="600" y="720" as="targetPoint" />
            <Array as="points">
              <mxPoint x="600" y="720" />
            </Array>
          </mxGeometry>
        </mxCell>
        <mxCell id="_cuoZpArgOcJliaaxK5M-15" value="The motors can carry the amount of packages" style="rounded=0;whiteSpace=wrap;html=1;" vertex="1" parent="1">
          <mxGeometry x="540" y="540" width="120" height="60" as="geometry" />
        </mxCell>
        <mxCell id="_cuoZpArgOcJliaaxK5M-18" style="edgeStyle=orthogonalEdgeStyle;rounded=0;orthogonalLoop=1;jettySize=auto;html=1;exitX=0.5;exitY=1;exitDx=0;exitDy=0;entryX=0;entryY=0.5;entryDx=0;entryDy=0;" edge="1" parent="1" source="_cuoZpArgOcJliaaxK5M-16" target="_cuoZpArgOcJliaaxK5M-17">
          <mxGeometry relative="1" as="geometry">
            <mxPoint x="120" y="730" as="targetPoint" />
          </mxGeometry>
        </mxCell>
        <mxCell id="_cuoZpArgOcJliaaxK5M-16" value="The motors can&#39;t carry the amount of packages" style="rounded=0;whiteSpace=wrap;html=1;" vertex="1" parent="1">
          <mxGeometry x="60" y="540" width="120" height="60" as="geometry" />
        </mxCell>
        <mxCell id="_cuoZpArgOcJliaaxK5M-20" style="edgeStyle=orthogonalEdgeStyle;rounded=0;orthogonalLoop=1;jettySize=auto;html=1;exitX=0.5;exitY=1;exitDx=0;exitDy=0;entryX=1;entryY=0.5;entryDx=0;entryDy=0;" edge="1" parent="1" source="_cuoZpArgOcJliaaxK5M-17" target="_cuoZpArgOcJliaaxK5M-1">
          <mxGeometry relative="1" as="geometry">
            <mxPoint x="720" y="60" as="targetPoint" />
            <Array as="points">
              <mxPoint x="360" y="770" />
              <mxPoint x="740" y="770" />
              <mxPoint x="740" y="60" />
            </Array>
          </mxGeometry>
        </mxCell>
        <mxCell id="_cuoZpArgOcJliaaxK5M-17" value="End" style="rounded=1;whiteSpace=wrap;html=1;" vertex="1" parent="1">
          <mxGeometry x="300" y="690" width="120" height="60" as="geometry" />
        </mxCell>
      </root>
    </mxGraphModel>
  </diagram>
</mxfile>
